<svg viewBox="0 0 640 640" version="1.1" xmlns="http://www.w3.org/2000/svg" xmlns:xlink="http://www.w3.org/1999/xlink" xml:space="preserve" xmlns:serif="http://www.serif.com/" id="logo"><path d="M427.06324,436.19664l-0.05569,0.32184c0,6.35786 -4.80088,11.51963 -10.71421,11.51963l-204.45002,11.30551c0,0 -50.35934,27.21429 -73.50559,39.79913c-5.61274,3.0517 -8.91927,3.82258 -10.12158,2.99236c-1.86556,-1.28819 -3.07475,-5.12553 -3.41112,-9.14637c-1.01751,-12.16282 -1.21213,-30.55276 -1.21213,-30.55276l-48.87867,2.40433c-5.91333,0 -10.71421,-5.16177 -10.71421,-11.51963l14.02456,-240.3863c0,-6.35786 4.80088,-11.51963 10.71421,-11.51963l375.83879,-63.86176c5.33001,0 9.85316,3.62907 11.41681,8.64366l9.54319,0c8.27873,0 15,6.72127 15,15c0,8.27873 -6.72127,15 -15,15l-13.48118,0l-6.05677,35l15.89235,0c8.27873,0 15,6.72127 15,15c0,8.27873 -6.72127,15 -15,15l-21.08387,0l-6.05677,35l37.33829,0c8.27873,0 15,6.72127 15,15c0,8.27873 -6.72127,15 -15,15l-42.5298,0l-6.05677,35l11.12409,0c8.27873,0 15,6.72127 15,15c0,8.27873 -6.72127,15 -15,15l-16.3156,0l-6.05677,35l33.43887,0c8.27873,0 15,6.72127 15,15c0,8.27873 -6.72127,15 -15,15l-38.63039,0Zm115.80118,-275c0,8.27873 -6.72127,15 -15,15l-2.8644,0c-8.27873,0 -15,-6.72127 -15,-15c0,-8.27873 6.72127,-15 15,-15l2.8644,0c8.27873,0 15,6.72127 15,15Zm11.90576,65c0,8.27873 -6.72127,15 -15,15l-18.68055,0c-8.27873,0 -15,-6.72127 -15,-15c0,-8.27873 6.72127,-15 15,-15l18.68055,0c8.27873,0 15,6.72127 15,15Zm21.22983,65c0,8.27873 -6.72128,15 -15,15l-29.55315,0c-8.27873,0 -15,-6.72127 -15,-15c0,-8.27873 6.72128,-15 15,-15l29.55315,0c8.27873,0 15,6.72127 15,15Zm-45.57011,65c0,8.27873 -6.72127,15 -15,15l-21.49042,0c-8.27873,0 -15,-6.72127 -15,-15c0,-8.27873 6.72127,-15 15,-15l21.49042,0c8.27873,0 15,6.72127 15,15Zm26.10649,65c0,8.27873 -6.72127,15 -15,15l-36.55752,0c-8.27873,0 -15,-6.72127 -15,-15c0,-8.27873 6.72127,-15 15,-15l36.55752,0c8.27873,0 15,6.72127 15,15Z"/></svg>